HIERARCHY
ROOT Hips
{
	OFFSET 0.00000 0.00000 0.00000
	CHANNELS 6 Xposition Yposition Zposition Zrotation Yrotation Xrotation 
	JOINT LHipJoint
	{
		OFFSET 0 0 0
		CHANNELS 3 Zrotation Yrotation Xrotation
		JOINT LeftUpLeg
		{
			OFFSET 1.86795 -1.59681 0.65681
			CHANNELS 3 Zrotation Yrotation Xrotation
			JOINT LeftLeg
			{
				OFFSET 2.30491 -6.33268 0.00000
				CHANNELS 3 Zrotation Yrotation Xrotation
				JOINT LeftFoot
				{
					OFFSET 2.46780 -6.78022 0.00000
					CHANNELS 3 Zrotation Yrotation Xrotation
					JOINT LeftToeBase
					{
						OFFSET 0.07897 -0.21698 1.59652
						CHANNELS 3 Zrotation Yrotation Xrotation
						End Site
						{
							OFFSET 0.00000 -0.00000 0.82310
						}
					}
				}
			}
		}
	}
	JOINT RHipJoint
	{
		OFFSET 0 0 0
		CHANNELS 3 Zrotation Yrotation Xrotation
		JOINT RightUpLeg
		{
			OFFSET -1.93650 -1.59681 0.65681
			CHANNELS 3 Zrotation Yrotation Xrotation
			JOINT RightLeg
			{
				OFFSET -2.29410 -6.30299 0.00000
				CHANNELS 3 Zrotation Yrotation Xrotation
				JOINT RightFoot
				{
					OFFSET -2.48738 -6.83403 0.00000
					CHANNELS 3 Zrotation Yrotation Xrotation
					JOINT RightToeBase
					{
						OFFSET -0.08699 -0.23899 1.89395
						CHANNELS 3 Zrotation Yrotation Xrotation
						End Site
						{
							OFFSET -0.00000 -0.00000 0.96904
						}
					}
				}
			}
		}
	}
	JOINT LowerBack
	{
		OFFSET 0 0 0
		CHANNELS 3 Zrotation Yrotation Xrotation
		JOINT Spine
		{
			OFFSET 0.03629 1.99740 -0.07548
			CHANNELS 3 Zrotation Yrotation Xrotation
			JOINT Spine1
			{
				OFFSET 0.03970 1.94298 0.17218
				CHANNELS 3 Zrotation Yrotation Xrotation
				JOINT Neck
				{
					OFFSET 0 0 0
					CHANNELS 3 Zrotation Yrotation Xrotation
					JOINT Neck1
					{
						OFFSET -0.05054 1.79469 0.04241
						CHANNELS 3 Zrotation Yrotation Xrotation
						JOINT Head
						{
							OFFSET 0.05195 1.78475 -0.22133
							CHANNELS 3 Zrotation Yrotation Xrotation
							End Site
							{
								OFFSET 0.02420 1.80711 -0.07950
							}
						}
					}
				}
				JOINT LeftShoulder
				{
					OFFSET 0 0 0
					CHANNELS 3 Zrotation Yrotation Xrotation
					JOINT LeftArm
					{
						OFFSET 2.92134 1.19850 0.36056
						CHANNELS 3 Zrotation Yrotation Xrotation
						JOINT LeftForeArm
						{
							OFFSET 4.84137 -0.00000 0.00000
							CHANNELS 3 Zrotation Yrotation Xrotation
							JOINT LeftHand
							{
								OFFSET 3.24520 -0.00000 -0.00000
								CHANNELS 3 Zrotation Yrotation Xrotation
								JOINT LeftFingerBase
								{
									OFFSET 0 0 0
									CHANNELS 3 Zrotation Yrotation Xrotation
									JOINT LeftHandIndex1
									{
										OFFSET 0.52122 -0.00000 0.00000
										CHANNELS 3 Zrotation Yrotation Xrotation
										End Site
										{
											OFFSET 0.42022 -0.00000 0.00000
										}
									}
								}
								JOINT LThumb
								{
									OFFSET 0 0 0
									CHANNELS 3 Zrotation Yrotation Xrotation
									End Site
									{
										OFFSET 0.42664 -0.00000 0.42664
									}
								}
							}
						}
					}
				}
				JOINT RightShoulder
				{
					OFFSET 0 0 0
					CHANNELS 3 Zrotation Yrotation Xrotation
					JOINT RightArm
					{
						OFFSET -2.84327 1.20795 0.50191
						CHANNELS 3 Zrotation Yrotation Xrotation
						JOINT RightForeArm
						{
							OFFSET -4.72284 -0.00000 0.00000
							CHANNELS 3 Zrotation Yrotation Xrotation
							JOINT RightHand
							{
								OFFSET -3.23459 -0.00000 0.00000
								CHANNELS 3 Zrotation Yrotation Xrotation
								JOINT RightFingerBase
								{
									OFFSET 0 0 0
									CHANNELS 3 Zrotation Yrotation Xrotation
									JOINT RightHandIndex1
									{
										OFFSET -0.30742 -0.00000 0.00000
										CHANNELS 3 Zrotation Yrotation Xrotation
										End Site
										{
											OFFSET -0.24785 -0.00000 0.00000
										}
									}
								}
								JOINT RThumb
								{
									OFFSET 0 0 0
									CHANNELS 3 Zrotation Yrotation Xrotation
									End Site
									{
										OFFSET -0.25163 -0.00000 0.25163
									}
								}
							}
						}
					}
				}
			}
		}
	}
}
MOTION
Frames: 14
Frame Time: 0.0266667
0.00 0.00 0.00 0 0 0 0 0 0 -21 0 0 0 0 0 0 0 0 0 0 0 0 0 0 21 0 0 0 0 0 0 0 0 0 0 0 0 0 0 0 0 0 0 0 0 0 0 -16 0 0 21 0 0 11 0 0 0 -8 0 0 0 0 0 0 0 0 0 0 0 0 0 0 0 0 0 0 0 0 8 0 0 0 0 0 0 0 0 0 0 0 0 0 0 0 0 0
0.00 0.00 0.00 2.7212 -29.4785 11.7304 0.0000 0.0000 0.0000 -13.7086 -16.0205 -34.8507 5.2794 13.6917 42.0162 0.9278 5.4527 -20.9557 1.1512 -6.8127 -19.1616 0.0000 0.0000 0.0000 10.6112 22.8970 -39.2618 -5.8579 -14.2893 44.4089 0.9794 -19.0710 -16.0346 -0.0019 0.2795 -0.7679 -0.4695 -1.5208 12.4018 -0.1596 -2.1472 7.1229 0.3475 -1.1230 0.5156 -10.2967 -3.5852 7.3405 16.8343 -2.9797 -27.6803 8.1590 -2.3723 -9.2873 -0.0000 0.0000 0.0000 -93.0102 -12.0558 42.2825 78.5582 -59.4995 -50.1078 -0.0000 -0.0000 56.7672 -25.3286 42.3349 -17.6800 -7.1250 0.0000 -0.0000 -69.8102 59.0331 -33.3179 -0.0000 0.0000 0.0000 85.5534 17.3178 41.1666 -74.9826 59.1305 -47.0325 0.0000 0.0000 13.9739 17.7643 -2.5690 -0.8227 7.1250 -0.0000 -0.0000 33.7640 -30.8629 13.9473
0.00 0.00 0.00 1.8367 -30.4629 11.9406 0.0000 0.0000 0.0000 -13.0524 -15.2409 -34.3535 5.2612 13.6720 41.9392 0.9665 5.8268 -21.5552 1.1592 -6.8354 -19.2287 0.0000 0.0000 0.0000 11.6827 23.5587 -38.1324 -5.5732 -14.0016 43.2437 1.0105 -19.0371 -15.3380 -0.0034 0.3770 -1.0358 -0.2461 -1.8863 11.7440 0.0664 -2.6008 6.9013 0.4893 -1.3463 0.6420 -10.1864 -2.2487 8.2953 14.1237 -1.8507 -25.7856 6.9459 -1.5450 -9.0759 -0.0000 0.0000 0.0000 -92.9220 -13.1174 41.5321 93.7207 -59.9476 -63.2216 -0.0000 -0.0000 56.1128 -24.6604 42.2128 -17.1435 -7.1250 0.0000 -0.0000 -69.1292 59.1429 -32.9562 -0.0000 0.0000 0.0000 85.6139 23.6815 42.3197 -97.0587 59.8109 -66.1091 0.0000 0.0000 15.4132 8.6575 2.8603 0.4353 7.1250 -0.0000 -0.0000 26.1432 -26.6556 12.9478
0.00 0.00 0.00 1.9286 -31.8216 12.0330 0.0000 0.0000 0.0000 -13.4316 -13.4977 -33.3091 4.8527 13.2160 40.1826 0.8979 6.2494 -21.2177 1.5389 -7.8311 -22.2023 0.0000 0.0000 0.0000 11.6227 24.8990 -37.1916 -5.2957 -13.7092 42.0850 0.8507 -18.1807 -15.9312 -0.0056 -0.4813 1.3224 -0.3475 -1.4996 10.9507 0.2878 -2.0885 6.2267 0.7084 -1.0903 0.3716 -8.3423 0.2161 8.7802 7.7400 0.4395 -24.6333 4.0752 0.0650 -9.1664 -0.0000 0.0000 0.0000 -91.9349 -15.0191 39.0820 109.6160 -58.4950 -76.9021 -0.0000 -0.0000 54.8310 -19.0619 40.4559 -12.6371 -7.1250 0.0000 -0.0000 -62.2874 59.6260 -28.6248 -0.0000 0.0000 0.0000 86.5950 30.6541 44.1237 -115.6157 57.3694 -81.9879 0.0000 0.0000 10.1247 -4.0899 -3.5925 0.2567 7.1250 -0.0000 -0.0000 18.1763 -33.1511 5.5188
0.00 0.00 0.00 2.8053 -32.7825 13.6075 0.0000 0.0000 0.0000 -10.8684 -12.7995 -40.6678 8.7341 16.6335 55.1660 -0.0616 10.0165 -13.2106 0.0170 0.8419 2.3139 0.0000 0.0000 0.0000 16.4378 22.3085 -36.0377 -5.7512 -14.1828 43.9748 0.6136 -19.5461 -22.0953 -0.0205 -0.9238 2.5391 2.8722 -2.0224 10.0635 0.9944 -2.4313 4.1471 -0.3144 -1.2116 -1.3996 -6.5245 5.0109 2.3647 -0.2745 6.1834 -18.6940 0.6099 3.4267 -6.2729 0.0000 -0.0000 0.0000 -89.3963 -12.0954 31.8754 123.2966 -55.3655 -88.3870 -0.0000 -0.0000 55.2091 -24.8328 41.7456 -17.1249 -7.1250 0.0000 -0.0000 -68.6109 58.8647 -32.0925 0.0000 -0.0000 0.0000 89.5454 35.5722 47.9007 -125.5693 54.6333 -90.2488 0.0000 0.0000 18.2098 4.7917 0.8831 0.0740 7.1250 -0.0000 -0.0000 23.8809 -28.6186 10.3729
0.00 0.00 0.00 4.2912 -35.9949 14.5705 0.0000 0.0000 0.0000 -17.9271 -14.7488 -38.4834 3.7905 11.8762 35.2956 0.4041 -1.8771 -11.5036 0.7530 -5.5425 -15.4625 0.0000 0.0000 0.0000 18.1927 13.3005 -37.7734 -9.5250 -17.1340 57.8888 0.3363 -10.3662 -5.6926 -0.5872 4.9062 -13.6411 0.8472 -0.4178 8.3651 -0.5354 -0.5291 3.1719 -0.9776 -0.2702 -1.4214 -5.7666 5.6252 0.2862 2.0109 7.5979 -16.9752 1.1991 3.9165 -5.4690 -0.0000 0.0000 0.0000 -88.3783 -12.6028 34.0033 123.9236 -55.1704 -88.9023 -0.0000 -0.0000 54.4754 -27.2113 41.8362 -18.9299 -7.1250 0.0000 -0.0000 -70.5443 58.3146 -32.6989 -0.0000 0.0000 0.0000 88.1740 35.1872 45.9368 -127.5505 53.9369 -91.8575 0.0000 0.0000 17.3211 7.0445 1.0918 0.1349 7.1250 -0.0000 -0.0000 25.4340 -28.3339 11.3803
0.00 0.00 0.00 4.6285 -45.1602 13.8965 0.0000 0.0000 0.0000 -22.5093 -8.7353 -27.3169 3.3252 11.2038 32.9703 0.4230 7.9137 -17.6476 1.3875 -7.4529 -21.0641 0.0000 0.0000 0.0000 11.1805 14.7782 -50.4165 -5.4867 -13.9117 42.8850 0.2911 -9.6588 -1.7672 -1.3825 7.4400 -21.0256 -1.4965 -0.5278 8.7964 -0.8421 -0.8867 2.7483 0.0648 -0.4545 -2.0750 -4.1045 7.5652 -1.0149 1.0670 10.2066 -15.8820 0.5791 5.1532 -4.8847 -0.0000 -0.0000 0.0000 -87.2798 -12.0506 32.4077 123.5916 -55.2743 -88.6296 -0.0000 -0.0000 52.1854 -21.6506 41.5373 -14.7469 -7.1250 0.0000 -0.0000 -65.8468 59.5631 -31.1028 -0.0000 -0.0000 0.0000 90.6246 35.3739 49.4472 -125.1860 54.7617 -89.9360 0.0000 0.0000 20.1843 7.5228 -0.7584 -0.1001 7.1250 -0.0000 -0.0000 26.2270 -29.9897 10.6423
0.00 0.00 0.00 3.1233 -43.0232 13.9656 0.0000 0.0000 0.0000 -19.1443 -6.0629 -33.0870 6.8655 15.2176 48.3638 0.0303 3.5392 -6.2803 0.1201 -2.2341 -6.1530 0.0000 0.0000 0.0000 14.7222 15.4960 -41.8689 -4.6296 -12.9541 39.1968 0.4113 -11.5398 -1.6513 -2.0838 9.0385 -25.9157 -0.2120 -0.8025 8.7602 -0.0982 -1.1147 2.6027 0.1352 -0.5666 -2.2125 -4.1199 7.3477 -0.2998 1.0126 9.8800 -16.3214 0.5414 4.9892 -5.1280 0.0000 -0.0000 0.0000 -87.8468 -9.8735 32.6734 124.8517 -54.8720 -89.6627 -0.0000 -0.0000 52.1397 -23.8159 40.9403 -16.1313 -7.1250 0.0000 -0.0000 -66.7235 58.7030 -30.3889 0.0000 -0.0000 0.0000 90.0231 34.6017 49.7901 -125.3735 54.6992 -90.0890 0.0000 0.0000 20.1721 7.0313 -1.8034 -0.2224 7.1250 -0.0000 -0.0000 26.1457 -30.9615 9.9139
0.00 0.00 0.00 1.1595 -35.4369 14.8289 0.0000 0.0000 0.0000 -11.9931 -14.6855 -31.4652 4.9147 13.2871 40.4528 1.4799 -0.7473 -22.7832 1.0085 -6.3899 -17.9201 0.0000 0.0000 0.0000 8.6324 19.9622 -41.1254 -4.1616 -12.3724 37.0625 0.7966 -15.7891 -8.7163 -0.8665 5.9355 -16.5973 -0.1407 -1.4102 10.1558 0.7021 -1.8899 2.9954 1.0354 -0.9528 -2.5470 -4.1301 3.5369 -1.6348 5.4562 5.1695 -11.8060 2.4073 2.5099 -3.8713 -0.0000 0.0000 0.0000 -90.0373 -15.4717 33.6839 122.8727 -55.4946 -88.0379 -0.0000 -0.0000 50.5036 -36.1432 32.7747 -21.5726 -7.1250 0.0000 -0.0000 -65.8778 51.5005 -16.5614 -0.0000 0.0000 0.0000 75.9219 57.7558 38.3182 -135.4862 50.5281 -98.1372 0.0000 0.0000 15.8739 6.8479 3.9006 0.4681 7.1250 -0.0000 -0.0000 24.6747 -25.7788 12.6346
0.00 0.00 0.00 2.2725 -33.5933 14.4630 0.0000 0.0000 0.0000 -12.0581 -16.0205 -29.2186 4.0498 12.2264 36.5376 1.3482 0.2616 -22.0575 1.3340 -7.3135 -20.6475 0.0000 0.0000 0.0000 8.2603 20.6914 -39.8561 -4.0100 -12.1737 36.3492 1.0003 -17.6761 -10.1600 -0.5378 4.6987 -13.0513 -0.7102 -1.0100 9.6448 0.2579 -1.4241 2.8203 0.8308 -0.7180 -2.4531 -5.2612 1.7835 -1.4510 9.8915 3.1692 -11.2104 3.8059 1.3814 -3.3056 0.0000 -0.0000 0.0000 -89.0482 -14.5956 34.5323 121.8378 -55.8000 -87.1836 -0.0000 -0.0000 50.3946 -32.7899 37.4847 -21.4067 -7.1250 0.0000 -0.0000 -69.0623 54.8063 -25.2148 0.0000 -0.0000 0.0000 58.1596 73.6456 18.3785 -130.7436 52.6912 -94.4185 0.0000 0.0000 17.0626 4.1354 3.8466 0.2779 7.1250 -0.0000 -0.0000 22.8016 -25.9110 11.4242
0.00 0.00 0.00 2.6010 -34.7325 14.2959 0.0000 0.0000 0.0000 -12.4578 -15.4319 -28.5201 3.8533 11.9626 35.5998 1.3106 0.3731 -21.7875 1.1331 -6.7607 -19.0084 0.0000 0.0000 0.0000 8.0778 21.2414 -39.5036 -3.8628 -11.9755 35.6454 0.9915 -17.4983 -9.4084 -0.5772 4.8649 -13.5235 -1.0397 -0.7270 9.6115 -0.3958 -1.1021 2.6874 0.3042 -0.5556 -2.5852 -5.9280 0.4931 0.0925 13.4471 1.7551 -12.0949 5.0819 0.4847 -3.7238 -0.0000 0.0000 0.0000 -88.9349 -14.6711 34.4005 121.2226 -55.9753 -86.6742 -0.0000 -0.0000 50.7824 -32.0048 38.2673 -21.1600 -7.1250 0.0000 -0.0000 -69.4591 55.3878 -26.6088 -0.0000 0.0000 0.0000 20.8275 77.3832 -11.0821 -125.7585 54.5692 -90.4031 0.0000 0.0000 12.7315 -1.2120 5.1272 -0.1083 7.1250 -0.0000 -0.0000 18.7962 -24.8007 9.6851
0.00 0.00 0.00 2.5175 -34.7414 14.8010 0.0000 0.0000 0.0000 -12.1338 -15.6143 -28.6129 3.7282 11.7897 34.9919 1.2784 1.0732 -21.7813 1.2673 -7.1354 -20.1173 0.0000 0.0000 0.0000 8.0995 21.5311 -39.7558 -3.7918 -11.8780 35.3018 0.9746 -17.3827 -9.5326 -0.5660 4.8185 -13.3916 -1.1026 -0.5646 9.1501 -0.7211 -0.8961 2.5288 -0.0250 -0.4523 -2.5014 -7.6369 -0.3047 0.3326 16.9760 0.8840 -11.6733 6.5374 -0.0289 -3.5339 0.0000 0.0000 0.0000 -89.5529 -14.9443 34.9566 121.5952 -55.8697 -86.9828 -0.0000 -0.0000 50.2005 -33.0516 37.2846 -21.5129 -7.1250 0.0000 -0.0000 -69.0059 54.6443 -24.8620 0.0000 0.0000 0.0000 -7.7991 72.6513 -40.5358 -115.1985 57.4593 -81.6364 0.0000 0.0000 12.0098 0.1030 6.6007 0.0118 7.1250 -0.0000 -0.0000 19.5110 -23.4018 10.7739
0.00 0.00 0.00 2.8483 -33.4136 14.6096 0.0000 0.0000 0.0000 -12.0495 -16.5287 -28.1604 3.5933 11.5985 34.3261 1.2255 1.0390 -21.3208 1.4522 -7.6172 -21.5573 0.0000 0.0000 0.0000 8.1706 20.7467 -39.4772 -3.7644 -11.8401 35.1687 1.0122 -17.7485 -10.0405 -0.4545 4.3248 -11.9923 -1.4429 -0.7799 9.5700 -1.1179 -1.2350 2.4780 -0.1992 -0.6176 -2.7851 -8.2533 -0.4647 1.3912 19.5164 0.9121 -12.2349 7.5159 -0.1805 -3.8757 -0.0000 -0.0000 0.0000 -89.9315 -15.0821 35.8800 121.5523 -55.8819 -86.9473 -0.0000 -0.0000 50.6312 -32.5202 37.1623 -21.0636 -7.1250 0.0000 -0.0000 -68.4767 54.6914 -24.5861 -0.0000 -0.0000 0.0000 -17.0846 63.8416 -57.1171 -95.1925 59.8979 -64.4953 0.0000 0.0000 14.9906 1.0178 7.2150 0.1278 7.1250 -0.0000 -0.0000 20.0590 -22.8201 11.4047
0.00 0.00 0.00 1.9254 -31.4778 15.4100 0.0000 0.0000 0.0000 -10.4464 -17.5034 -28.6385 3.5835 11.5845 34.2774 1.1414 0.4623 -20.3703 1.3383 -7.3249 -20.6815 0.0000 0.0000 0.0000 9.3091 20.4005 -39.1766 -3.7049 -11.7569 34.8775 1.1841 -19.0249 -10.1237 -0.4584 4.3432 -12.0442 -1.2238 -1.2789 9.5778 -0.8737 -1.8639 2.4157 0.0050 -0.9284 -2.8486 -8.3176 -0.5472 1.9894 20.6927 0.9423 -12.6097 7.9468 -0.2716 -4.0924 -0.0000 0.0000 0.0000 -90.0493 -15.0488 36.2668 121.4696 -55.9054 -86.8789 -0.0000 -0.0000 50.2105 -31.3631 38.3516 -20.7164 -7.1250 0.0000 -0.0000 -69.0962 55.5730 -26.6941 -0.0000 0.0000 0.0000 -17.7087 57.0195 -66.2923 -72.5524 58.8179 -44.9499 0.0000 0.0000 19.8825 3.6231 7.4445 0.4700 7.1250 -0.0000 -0.0000 21.8141 -22.5847 12.6853
